<!--
    Created by copying from https://www.hi.no/resources/stox_300x300.jpg/square300
    transferred to photopea.com (magic wand to rid off white background) abd export as new png
    simplified (1 color black-svg) by using pngtosvg.com
-->
<svg id="svg" version="1.1" xmlns="http://www.w3.org/2000/svg" xmlns:xlink="http://www.w3.org/1999/xlink" 
width="400" height="109.56521739130434" viewBox="0, 0, 400,109.56521739130434">
<g id="svgg">
<path id="path0" d="M30.435 7.242 C 10.968 17.982,11.539 33.836,32.085 53.043 C 45.537 65.620,47.108 69.572,41.057 75.623 C 35.729 80.950,29.246 81.236,20.052 76.548 C 16.328 74.649,13.123 73.280,12.930 73.505 C 2.874 85.233,29.237 96.454,44.698 87.027 C 61.301 76.903,59.661 62.193,39.833 43.405 C 26.717 30.976,24.830 25.605,31.304 19.130 C 35.123 15.311,48.109 14.285,53.836 17.350 C 56.533 18.793,57.125 18.257,57.782 13.779 C 58.962 5.738,40.960 1.435,30.435 7.242 M128.250 11.535 C 131.212 15.234,140.800 26.870,149.557 37.391 C 158.314 47.913,165.899 57.510,166.412 58.717 C 166.925 59.925,161.315 67.555,153.944 75.674 L 140.543 90.435 147.228 90.434 C 153.263 90.433,154.902 89.327,164.081 79.063 L 174.249 67.693 181.677 74.540 C 221.400 111.155,332.418 111.323,373.913 74.831 L 380.000 69.478 371.607 74.607 C 320.979 105.546,227.474 102.972,187.391 69.535 C 178.861 62.419,179.163 59.128,189.130 50.564 C 233.691 12.279,330.407 10.138,374.108 46.469 L 381.739 52.814 375.778 46.440 C 336.730 4.690,228.924 3.985,183.843 45.186 L 174.225 53.977 153.634 32.094 C 142.309 20.058,130.753 8.996,127.953 7.511 L 122.863 4.810 128.250 11.535 M75.767 28.696 C 74.768 34.021,73.982 34.783,69.486 34.783 C 65.507 34.783,64.348 35.567,64.348 38.261 C 64.348 40.812,65.507 41.739,68.696 41.739 C 73.817 41.739,73.758 41.175,70.435 58.543 C 65.419 84.757,67.638 90.725,82.403 90.725 C 92.359 90.725,93.913 89.724,93.913 83.314 C 93.913 78.736,93.525 78.346,90.549 79.939 C 79.925 85.625,77.323 81.614,80.056 63.771 C 83.117 43.785,84.077 41.739,90.392 41.739 C 94.493 41.739,95.652 40.973,95.652 38.261 C 95.652 35.544,94.493 34.783,90.356 34.783 C 85.245 34.783,85.100 34.570,86.202 28.696 C 87.301 22.838,87.147 22.609,82.126 22.609 C 77.540 22.609,76.771 23.346,75.767 28.696 M114.407 35.747 C 102.138 42.405,95.873 67.684,103.128 81.253 C 111.158 96.270,133.029 93.607,142.177 76.499 C 155.759 51.102,136.955 23.508,114.407 35.747 M133.873 46.882 C 136.190 51.210,136.150 62.808,133.797 69.017 C 126.825 87.418,111.304 85.491,111.304 66.225 C 111.304 45.814,126.384 32.889,133.873 46.882 M358.261 46.930 C 360.418 48.302,360.491 49.201,358.681 52.121 C 356.151 56.203,358.523 56.918,361.739 53.043 C 364.115 50.181,361.475 45.192,357.613 45.244 C 356.535 45.259,356.826 46.017,358.261 46.930 M337.798 59.923 C 333.234 69.317,322.003 81.957,313.611 87.143 C 306.577 91.491,307.025 93.591,314.186 89.842 C 327.255 82.998,344.614 60.798,342.307 53.877 C 341.955 52.822,339.926 55.542,337.798 59.923 " stroke="none" fill="#000000" fill-rule="evenodd">
</path>
</g>
</svg>