<svg id="Hvit" xmlns="http://www.w3.org/2000/svg" viewBox="0 0 105.21 105.21"><defs><style>.cls-1{fill:#fff;}</style></defs><title>HI logo hvit norsk</title><path class="cls-1" d="M70.87,21.26A49.61,49.61,0,1,1,21.26,70.87,49.61,49.61,0,0,1,70.87,21.26m0-3a52.61,52.61,0,1,0,52.61,52.61A52.67,52.67,0,0,0,70.87,18.26Z" transform="translate(-18.26 -18.26)"/><polygon class="cls-1" points="52.56 27.75 51.55 29.43 53.56 29.43 52.56 27.75"/><polygon class="cls-1" points="53.67 29.61 51.44 29.61 50.83 30.64 54.28 30.64 53.67 29.61"/><path class="cls-1" d="M70.34,58.93l0,0,.06,0Z" transform="translate(-18.26 -18.26)"/><polygon class="cls-1" points="54.4 30.84 50.71 30.84 50.11 31.85 55.01 31.85 54.4 30.84"/><polygon class="cls-1" points="55.14 32.07 49.98 32.07 49.39 33.06 55.73 33.06 55.14 32.07"/><path class="cls-1" d="M76.14,56.47H67.33q.49.46,1,.89h5.1A16.87,16.87,0,0,1,76.14,56.47Z" transform="translate(-18.26 -18.26)"/><path class="cls-1" d="M68.71,57.7c.37.31.75.59,1.13.87H71c.53-.32,1.06-.61,1.6-.87Z" transform="translate(-18.26 -18.26)"/><path class="cls-1" d="M66.81,56l.18.17h9.88l-.54-.91H66.07Z" transform="translate(-18.26 -18.26)"/><path class="cls-1" d="M67,61.69a24.75,24.75,0,0,1,2.48-2.08,26.35,26.35,0,0,1-2.48-2Z" transform="translate(-18.26 -18.26)"/><polygon class="cls-1" points="55.87 33.3 49.24 33.3 48.66 34.27 56.45 34.27 55.87 33.3"/><polygon class="cls-1" points="47.66 43.13 43.37 43.13 42.89 43.94 47.66 43.94 47.66 43.13"/><polygon class="cls-1" points="47.66 41.9 44.11 41.9 43.61 42.73 47.66 42.73 47.66 41.9"/><polygon class="cls-1" points="47.66 44.36 42.64 44.36 42.17 45.15 47.66 45.15 47.66 44.36"/><polygon class="cls-1" points="63.21 45.59 48.07 45.59 47.66 46.02 47.66 45.59 41.91 45.59 41.45 46.35 63.67 46.35 63.21 45.59"/><polygon class="cls-1" points="47.66 40.67 44.84 40.67 44.33 41.52 47.66 41.52 47.66 40.67"/><polygon class="cls-1" points="47.66 38.21 46.31 38.21 45.78 39.1 47.66 39.1 47.66 38.21"/><polygon class="cls-1" points="47.66 36.98 47.04 36.98 46.5 37.89 47.66 37.89 47.66 36.98"/><polygon class="cls-1" points="47.66 39.44 45.58 39.44 45.06 40.31 47.66 40.31 47.66 39.44"/><polygon class="cls-1" points="57.34 35.76 47.78 35.76 47.22 36.69 57.89 36.69 57.34 35.76"/><polygon class="cls-1" points="56.6 34.53 48.51 34.53 47.94 35.48 57.17 35.48 56.6 34.53"/><path class="cls-1" d="M68.08,70.66H85.53l-.4-.67H69.57C69.07,70.23,68.57,70.45,68.08,70.66Z" transform="translate(-18.26 -18.26)"/><path class="cls-1" d="M60.25,76.7h3.62c.42-.21.85-.4,1.28-.57H59.57Z" transform="translate(-18.26 -18.26)"/><path class="cls-1" d="M58.4,80.61a24.76,24.76,0,0,1,2.48-2.09,26.3,26.3,0,0,1-2.49-2C58.39,77.67,58.39,79.32,58.4,80.61Z" transform="translate(-18.26 -18.26)"/><path class="cls-1" d="M77.74,81q-.86.29-1.71.5H92L91.74,81h-14Z" transform="translate(-18.26 -18.26)"/><path class="cls-1" d="M80.85,78.58c-6.59-3.39-12.64-3.41-18.06-.07C68.34,81.86,74.39,81.89,80.85,78.58Z" transform="translate(-18.26 -18.26)"/><path class="cls-1" d="M79.61,80.33h11.7L91,79.82H80.73Q80.17,80.09,79.61,80.33Z" transform="translate(-18.26 -18.26)"/><path class="cls-1" d="M59,81.54h8.2c-.53-.14-1-.3-1.57-.49H59.49Z" transform="translate(-18.26 -18.26)"/><path class="cls-1" d="M82.23,79l-.15.08h8.5l-.32-.53H83.05Z" transform="translate(-18.26 -18.26)"/><polygon class="cls-1" points="39.52 64.49 74.49 64.49 74.21 64.01 39.97 64.01 39.52 64.49"/><path class="cls-1" d="M60.3,80.33h3.62c-.33-.16-.67-.33-1-.51h-2Z" transform="translate(-18.26 -18.26)"/><path class="cls-1" d="M68,62.2h6.36a18.55,18.55,0,0,1-1.91-.81H68.91Q68.44,61.78,68,62.2Z" transform="translate(-18.26 -18.26)"/><path class="cls-1" d="M62.66,77.36H61.09l.6.43h.25Z" transform="translate(-18.26 -18.26)"/><path class="cls-1" d="M70.92,68.24H84.09l-.42-.71H69.55Q70.23,67.86,70.92,68.24Z" transform="translate(-18.26 -18.26)"/><path class="cls-1" d="M71.87,68.76l-.83.46-.43.23h14.2l-.41-.69H71.87Z" transform="translate(-18.26 -18.26)"/><path class="cls-1" d="M68.46,67H83.37l-.44-.73H66.58C67.21,66.52,67.83,66.76,68.46,67Z" transform="translate(-18.26 -18.26)"/><path class="cls-1" d="M75.68,62.62H67.54c-.24.23-.48.47-.72.71l-.07.08H81.2l-.14-.23A16.87,16.87,0,0,1,75.68,62.62Z" transform="translate(-18.26 -18.26)"/><path class="cls-1" d="M69.39,61h2.26c-.42-.23-.84-.48-1.26-.75C70.06,60.48,69.72,60.73,69.39,61Z" transform="translate(-18.26 -18.26)"/><path class="cls-1" d="M81.82,77.91h8l-.33-.55H80.76C81.11,77.53,81.47,77.72,81.82,77.91Z" transform="translate(-18.26 -18.26)"/><path class="cls-1" d="M58.25,74.9l.62.59h8.24a17.31,17.31,0,0,1,8.56,0H88.42l-.35-.59H58.25Z" transform="translate(-18.26 -18.26)"/><path class="cls-1" d="M79.31,76.7h9.83l-.34-.57h-11C78.32,76.3,78.81,76.49,79.31,76.7Z" transform="translate(-18.26 -18.26)"/><path class="cls-1" d="M64.3,71.87h22l-.39-.65H66.59A21.68,21.68,0,0,1,64.3,71.87Z" transform="translate(-18.26 -18.26)"/><path class="cls-1" d="M65,65.82H82.65l-.45-.75H59.43l-.06.09A18.64,18.64,0,0,1,65,65.82Z" transform="translate(-18.26 -18.26)"/><path class="cls-1" d="M80.44,62.12l-1.75-2.94c-.43-.68-.84-1.32-1.17-1.88a16.43,16.43,0,0,0-6.14,2.29A16.62,16.62,0,0,0,80.44,62.12Z" transform="translate(-18.26 -18.26)"/><polygon class="cls-1" points="74.94 65.24 30.17 65.24 29.9 65.69 75.21 65.69 74.94 65.24"/><polygon class="cls-1" points="75.92 66.88 75.68 66.47 29.44 66.47 29.19 66.88 75.92 66.88"/><polygon class="cls-1" points="39.09 64.01 30.9 64.01 30.62 64.49 39.09 64.49 39.09 64.01"/><path class="cls-1" d="M69.67,68.77a20,20,0,0,0-11-2.47l-2.6,4.36C60.37,71.83,64.91,71.21,69.67,68.77Z" transform="translate(-18.26 -18.26)"/><path class="cls-1" d="M59.55,39.52c.62-.23.59-1.47-.09-3.33S58,33.37,57.37,33.6s-.4,2,.09,3.33C58.15,38.82,58.9,39.76,59.55,39.52Z" transform="translate(-18.26 -18.26)"/><polygon class="cls-1" points="22.85 28.09 22.84 28.11 25.07 30.68 25.8 29.79 22.85 28.09"/><path class="cls-1" d="M65,34.31c.56-.08.79-.54.67-1.33s-.48-1.23-1.1-1.14l.38,2.48Z" transform="translate(-18.26 -18.26)"/><path class="cls-1" d="M57.34,81H49.9l-.29.49h7.74C57.35,81.38,57.34,81.22,57.34,81Z" transform="translate(-18.26 -18.26)"/><path class="cls-1" d="M55.53,71.61l-.15.25h1.12C56.17,71.79,55.85,71.71,55.53,71.61Z" transform="translate(-18.26 -18.26)"/><polygon class="cls-1" points="39.1 55.77 39.36 56.02 69.44 56.02 69.07 55.41 36.04 55.41 35.67 56.02 39.1 56.02 39.1 55.77"/><path class="cls-1" d="M57.34,79.82H50.63l-.31.51h7Q57.34,80.08,57.34,79.82Z" transform="translate(-18.26 -18.26)"/><polygon class="cls-1" points="68.34 54.19 36.77 54.19 36.39 54.82 68.72 54.82 68.34 54.19"/><path class="cls-1" d="M70.87,23.63A47.24,47.24,0,1,0,118.1,70.87,47.29,47.29,0,0,0,70.87,23.63Zm34.07,28.51a1.67,1.67,0,0,1,2.38.62,1.92,1.92,0,0,1,.2.87l-.87.44a1.34,1.34,0,0,0-.1-.75.69.69,0,0,0-1-.35c-1.13.58-1.89,2.9-3.39,3.66a1.68,1.68,0,0,1-2.4-.64,1.83,1.83,0,0,1-.18-1.05l1-.48a1.37,1.37,0,0,0,0,1,.78.78,0,0,0,1,.34C102.64,55.24,103.47,52.88,104.93,52.13Zm-1.39-5.5A2.63,2.63,0,0,1,104,48.2l-.88.67a2.21,2.21,0,0,0-.28-1.66c-.65-.85-1.82-.55-3.5.73s-2.21,2.29-1.52,3.2a2.11,2.11,0,0,0,.25.26l2-1.49-.43-.56.76-.58,1.05,1.38L98.3,52.55a2.49,2.49,0,0,1-1.24-.84c-1-1.27-.43-3,1.67-4.59S102.61,45.4,103.55,46.63ZM50.64,69.35a24.12,24.12,0,0,0-3.54,3.07l-.91.95h0v-1.3c0-1.68,0-5.57,0-6.62l0-1.24h0v0l.9.89a25.54,25.54,0,0,0,3.57,3,17.55,17.55,0,0,1,6.59-2.65h.07l.34-.06L70.82,43.27l7.67,12.84a18.86,18.86,0,0,1,7.36.93h0q.75.24,1.52.54l.2.08q.68.27,1.36.59l.27.12c.53.25,1.06.52,1.59.82l.83.46h0l-.83.46-.06,0c-.42.24-.84.46-1.27.67l-.18.08q-.55.27-1.1.51l-.31.13L87,61.9l-.43.16-.74.24-.57.17-.46.12a19.85,19.85,0,0,1-2.14.44l14,23.52H45l9.19-15.39A19.75,19.75,0,0,1,50.64,69.35ZM96.84,39.7l-1.91,4.89,0,0,3.25-3.73.71.62-5.26,6L93,47,95,42.07l0,0-3.28,3.77-.71-.62,5.26-6Zm-4.27-3.09-4.18,6.84-.88-.54,4.18-6.84Zm-8.12-4,.78.31L85,38.21h0l1.85-4.58.88.35-3,7.43L84,41.11l.22-5.29h0l-1.87,4.63-.88-.35Zm-4-1.2-2,3.51.75,4.42-1-.2-.63-4.27,1.86-3.66Zm-3.2-.62,1,.2L76.72,38.9l-1-.2Zm-6.9,6.26a1.36,1.36,0,0,0,.89.46.78.78,0,0,0,.8-.76c0-1.24-1.66-3.07-1.63-4.72a1.67,1.67,0,0,1,1.67-1.8,1.89,1.89,0,0,1,.86.23l0,1a1.33,1.33,0,0,0-.71-.27.69.69,0,0,0-.8.75c0,1.27,1.66,3,1.63,4.72a1.68,1.68,0,0,1-1.7,1.81,1.85,1.85,0,0,1-1-.33Zm-6.11-6.18a2,2,0,0,1,2.42,1.88,1.94,1.94,0,0,1-.56,1.82,4.39,4.39,0,0,1,1.45,2.25l.61,1.57-1.07.16-.52-1.32c-.59-1.5-.93-2.16-1.51-2l.54,3.55-1,.16L63.36,31ZM57,32.7c1.34-.49,2.68,1.07,3.43,3.13,1,2.64.43,4.22-.61,4.6s-2.52-.63-3.43-3.13C55.77,35.46,55.57,33.24,57,32.7Zm-5.74,2.73.48.83L50.52,37l1.19,2.07,1.18-.68.48.83-1.18.68,1.85,3.21-.89.52-4-6.94Zm-7.38,5.22L48,44.27l0,0-2.95-4.58.82-.7,4.17,7.13-.54.46-6.41-5.2Zm-4,4,7.18,4-.63.77-1.56-.91L44,49.67,45.15,51l-.63.77-5.27-6.29Zm-5,7.63L38,54l.72-1.34L35.61,51l.49-.91,7.06,3.8-.49.91L39.56,53.1l-.72,1.34,3.11,1.67-.49.91-7.06-3.8Zm-.94,18.55a36.76,36.76,0,0,1,2.39-13.1.65.65,0,0,1,1.21.46,35.69,35.69,0,0,0,4,32.9.65.65,0,1,1-1.07.74A36.7,36.7,0,0,1,33.95,70.87ZM39.78,97l6.05-5.24.67.78-6.05,5.24Zm6,5.79,1.8-5h0l-3.17,3.84-.73-.61,5.09-6.17.65.54-1.77,4.94h0l3.14-3.81.73.61-5.09,6.17Zm9.69-1.94a1.34,1.34,0,0,0-.5-.57.69.69,0,0,0-1.05.29c-.62,1.11.05,3.46-.76,4.93a1.67,1.67,0,0,1-2.34.8,1.86,1.86,0,0,1-.74-.77l.52-.93a1.38,1.38,0,0,0,.57.83.78.78,0,0,0,1.06-.3c.6-1.08,0-3.5.76-4.93a1.66,1.66,0,0,1,2.31-.8,1.92,1.92,0,0,1,.65.61Zm5.73,2.24L60,102.67l-2.38,6.64-1-.35L59,102.32l-1.16-.42.32-.9,3.29,1.2Zm2.32,7.8-1-.21L64,102.82l1,.21Zm7.63-6.29-1.23-.07-.35,7.06-1-.05.35-7.06-1.23-.07,0-1,3.5.18Zm5.41,6.77a1.89,1.89,0,0,1-2.05-1.83l-.82-6,1-.14.82,6c.09.68.4,1.1.9,1s.7-.42.6-1.18l-.82-6,1-.14L78,109A1.88,1.88,0,0,1,76.51,111.38Zm6.8-1.62L81.1,103l-1.17.38-.3-.91,3.32-1.09.3.91-1.17.38,2.22,6.71Zm6.34-2.6-3.3-6.25-1.09.58-.45-.85L87.9,99l.45.85-1.09.58,3.3,6.25ZM95,103.9l-4.94-6.33,2.24-1.76.59.76-1.43,1.12,1.48,1.9,1.31-1,.59.76-1.31,1,1.69,2.16,1.51-1.18.59.76Zm6.1-5.48-5.27-4.71-.82.92L94.29,94l2.32-2.61.72.64-.82.92,5.27,4.71Zm0-6.55a.65.65,0,0,1-1.07-.74,35.69,35.69,0,0,0,4-32.9.65.65,0,1,1,1.21-.46,37,37,0,0,1-4.16,34.1Z" transform="translate(-18.26 -18.26)"/><path class="cls-1" d="M57.35,75.27V74.9H53.56l-.35.59h4.14C57.35,75.41,57.35,75.33,57.35,75.27Z" transform="translate(-18.26 -18.26)"/><path class="cls-1" d="M57.34,77.36H52.1l-.33.55h5.57C57.34,77.72,57.34,77.54,57.34,77.36Z" transform="translate(-18.26 -18.26)"/><path class="cls-1" d="M57.34,78.59h-6l-.32.53h6.29Q57.34,78.85,57.34,78.59Z" transform="translate(-18.26 -18.26)"/><path class="cls-1" d="M57.34,76.13H52.83l-.34.57h4.85C57.34,76.5,57.34,76.31,57.34,76.13Z" transform="translate(-18.26 -18.26)"/></svg>